<?xml version="1.0" standalone="no"?>
<!DOCTYPE svg PUBLIC "-//W3C//DTD SVG 20010904//EN"
 "http://www.w3.org/TR/2001/REC-SVG-20010904/DTD/svg10.dtd">
<svg version="1.0" xmlns="http://www.w3.org/2000/svg"
 width="236.000000pt" height="129.000000pt" viewBox="0 0 236.000000 129.000000"
 preserveAspectRatio="xMidYMid meet">

<g transform="translate(0.000000,129.000000) scale(0.100000,-0.100000)"
fill="#000000" stroke="none">
<path d="M277 1243 c-15 -53 -38 -175 -34 -179 2 -3 17 12 32 33 16 21 53 66
83 101 l54 62 -65 0 c-54 0 -67 -3 -70 -17z"/>
<path d="M396 1179 c-41 -44 -100 -117 -130 -162 l-54 -82 -66 -310 -65 -311
14 -69 c8 -37 31 -104 51 -147 l37 -78 94 0 c51 0 93 3 93 6 0 3 -11 20 -24
37 -91 122 -138 313 -117 478 31 238 153 467 347 648 l76 71 -90 0 -90 0 -76
-81z"/>
<path d="M642 1197 c-171 -146 -302 -348 -352 -542 -27 -103 -29 -272 -5 -364
19 -74 64 -168 109 -228 l31 -42 113 -1 114 0 -49 39 c-215 169 -265 478 -125
758 85 169 233 322 397 410 l60 33 -110 0 -110 0 -73 -63z"/>
<path d="M968 1231 c-93 -40 -201 -114 -278 -191 l-65 -65 52 -3 c50 -3 55 -1
115 50 35 30 89 69 120 86 59 34 188 82 219 82 19 0 39 28 39 54 0 29 -122 21
-202 -13z"/>
<path d="M1346 1244 c-14 -36 -6 -52 28 -58 107 -20 241 -132 295 -246 l29
-62 9 44 c7 37 12 43 36 46 15 2 27 5 27 8 0 3 -11 26 -24 53 -36 69 -114 150
-187 194 -58 33 -70 37 -135 37 -56 0 -73 -3 -78 -16z"/>
<path d="M1616 1231 c65 -47 140 -134 173 -199 l31 -62 71 0 71 0 -6 28 c-12
49 -66 156 -107 209 l-40 53 -116 0 -116 0 39 -29z"/>
<path d="M1894 1213 c43 -62 69 -114 92 -185 l18 -58 78 0 78 0 -6 28 c-15 69
-48 171 -70 214 l-24 48 -100 0 -100 0 34 -47z"/>
<path d="M2110 1256 c0 -2 11 -28 24 -58 14 -30 30 -75 37 -99 l12 -44 18 85
c27 125 28 120 -36 120 -30 0 -55 -2 -55 -4z"/>
<path d="M1053 1130 c-78 -28 -162 -75 -213 -120 l-45 -39 58 -1 c45 0 66 5
96 26 21 14 69 36 106 49 78 27 81 29 90 73 6 29 4 32 -17 31 -13 0 -47 -9
-75 -19z"/>
<path d="M1326 1142 c-2 -4 -7 -24 -11 -43 -7 -36 -6 -37 32 -49 115 -38 202
-145 223 -276 34 -208 -146 -469 -383 -556 -32 -12 -60 -26 -62 -32 -2 -6 -6
-24 -10 -40 -6 -28 -6 -28 32 -21 58 10 191 76 259 128 80 61 155 153 204 249
48 97 63 169 58 278 -5 102 -34 172 -104 249 -65 72 -218 145 -238 113z"/>
<path d="M1035 995 l-50 -24 65 2 c59 2 65 4 68 25 4 29 -19 29 -83 -3z"/>
<path d="M1296 1004 c-15 -38 -5 -59 39 -86 120 -73 158 -224 90 -364 -38 -79
-127 -166 -207 -204 -61 -29 -74 -45 -77 -92 -1 -16 3 -16 50 3 125 49 234
150 296 275 31 64 37 88 41 158 6 107 -13 168 -74 235 -40 44 -112 91 -141 91
-6 0 -14 -7 -17 -16z"/>
<path d="M588 925 c-38 -51 -87 -144 -113 -215 -33 -90 -44 -241 -25 -333 27
-130 128 -270 239 -330 46 -25 58 -28 138 -25 86 3 88 4 88 27 0 21 -7 27 -45
36 -103 27 -200 95 -257 181 -35 53 -37 54 -83 54 l-47 0 18 84 c10 46 23 96
29 110 5 15 10 43 10 63 0 19 14 76 31 126 16 51 26 93 21 95 -5 1 -3 29 5 64
17 74 14 95 -9 63z"/>
<path d="M1266 869 c-5 -25 -1 -35 23 -55 40 -33 61 -83 61 -142 0 -87 -50
-168 -135 -218 -32 -18 -44 -32 -47 -54 -6 -38 6 -38 64 -1 106 68 177 173
186 277 4 55 1 71 -22 119 -26 52 -82 105 -112 105 -6 0 -14 -14 -18 -31z"/>
<path d="M627 743 c-35 -79 -47 -129 -47 -190 l0 -53 45 0 45 0 0 48 c0 55 18
127 48 196 12 27 22 50 22 52 0 2 -20 4 -44 4 -43 0 -43 0 -69 -57z"/>
<path d="M765 750 c-31 -62 -55 -151 -55 -207 l0 -43 41 0 42 0 -6 36 c-11 65
16 159 67 237 l18 27 -41 0 c-39 0 -42 -2 -66 -50z"/>
<path d="M890 755 c-43 -62 -60 -117 -60 -191 l0 -64 41 0 c35 0 40 3 34 18
-29 71 -7 165 56 236 l41 46 -41 0 c-36 0 -43 -4 -71 -45z"/>
<path d="M1250 786 c0 -1 -14 -67 -30 -146 -17 -78 -29 -145 -26 -147 9 -9 55
29 82 68 36 52 45 137 19 185 -14 26 -45 54 -45 40z"/>
<path d="M1007 745 c-47 -46 -67 -84 -73 -143 -6 -59 12 -97 46 -97 24 0 26 6
47 105 33 160 35 170 25 170 -5 0 -25 -16 -45 -35z"/>
<path d="M1717 743 c-4 -3 -7 -25 -7 -47 0 -34 -35 -153 -64 -218 -7 -16 -2
-18 38 -18 l47 0 23 53 c24 52 56 179 56 216 0 18 -6 21 -43 21 -24 0 -47 -3
-50 -7z"/>
<path d="M1846 693 c-5 -47 -32 -142 -61 -215 -6 -16 0 -18 58 -18 l66 0 20
53 c19 52 51 190 51 222 0 12 -13 15 -64 15 l-63 0 -7 -57z"/>
<path d="M2011 675 c-7 -42 -23 -107 -36 -145 l-24 -70 50 0 c27 0 49 2 49 4
0 8 51 252 56 269 5 14 -1 17 -38 17 l-44 0 -13 -75z"/>
<path d="M1527 315 c-99 -111 -271 -214 -384 -231 -24 -3 -43 -9 -43 -13 0 -3
-3 -16 -6 -28 -6 -22 -4 -23 70 -23 63 0 88 5 141 29 70 32 135 74 207 133 43
36 48 45 64 114 9 41 14 77 12 79 -2 2 -30 -25 -61 -60z"/>
<path d="M630 311 c0 -18 103 -122 144 -146 49 -28 147 -58 157 -48 4 5 9 24
13 43 6 36 6 36 -56 63 -35 15 -80 43 -101 62 -35 32 -44 35 -98 35 -32 0 -59
-4 -59 -9z"/>
<path d="M835 295 c32 -27 112 -61 121 -53 3 3 8 22 11 42 l6 36 -84 0 -84 -1
30 -24z"/>
<path d="M57 190 c-3 -8 -11 -40 -17 -70 -6 -30 -13 -65 -16 -77 -6 -22 -4
-23 55 -23 l61 0 -21 42 c-12 24 -30 65 -39 93 -11 30 -20 44 -23 35z"/>
<path d="M1488 114 c-26 -20 -71 -48 -100 -64 l-53 -30 91 0 91 0 13 60 c7 33
11 62 9 64 -2 3 -25 -11 -51 -30z"/>
</g>
</svg>
